<?xml version="1.0" encoding="utf-8"?>
<!-- Generator: Adobe Illustrator 19.2.1, SVG Export Plug-In . SVG Version: 6.00 Build 0)  -->
<svg version="1.1" id="Layer_1" xmlns="http://www.w3.org/2000/svg" xmlns:xlink="http://www.w3.org/1999/xlink" x="0px" y="0px"
	 viewBox="0 0 216.4 53.8" style="enable-background:new 0 0 216.4 53.8;" xml:space="preserve">
<style type="text/css">
	.st0{fill:#002D73;}
	.st1{fill:#8E9090;}
</style>
<g>
	<g>
		<g>
			<g>
				<path class="st0" d="M75.2,14.7h-3.9l-4.6,21.8h1.9l2.1-9.8h2.9c0.9,0,3.4-0.3,5-1.5c1.5-1,2.3-2.6,2.8-4.7
					C82.3,16,80.1,14.7,75.2,14.7z M79.4,20.6C78.6,24.5,76,25,72.6,25H71l1.8-8.6h2.8C78.6,16.5,80.1,17.3,79.4,20.6z"/>
				<path class="st0" d="M87.5,20.1c-4.4,0-6,4.4-6.8,8c-0.8,3.7-1.8,8.8,3.1,8.8c4.6,0,6.1-4.9,6.9-8.5
					C91.5,24.9,92,20.1,87.5,20.1z M89.1,28.5c-0.5,2.4-1.5,7-4.9,7c-3.5,0-2.2-4.9-1.7-7.3c0.5-2.2,1.6-6.6,4.6-6.6
					C90.5,21.6,89.6,26,89.1,28.5z"/>
				<polygon class="st0" points="102.2,33.3 102.2,33.3 102.4,20.5 100.5,20.5 95.3,33.3 95.3,33.3 95.4,20.5 93.7,20.5 93.7,36.5 
					95.5,36.5 100.7,24 100.7,24 100.5,36.5 102.3,36.5 109.2,20.5 107.5,20.5 				"/>
				<path class="st0" d="M115.9,20.1c-4.4,0-5.7,5.3-6.4,8.5c-0.7,3.3-1.6,8.4,2.9,8.4c3.3,0,5.1-2.7,5.7-5.6h-1.6
					c-0.6,1.9-1.3,4.2-3.7,4.2c-3.3,0-2-5-1.5-7h7.5l0.3-1.6C119.7,23.8,119.7,20.1,115.9,20.1z M117.4,27h-5.8
					c0.4-1.9,1.4-5.4,4-5.4C118.3,21.6,117.8,24.9,117.4,27z"/>
				<path class="st0" d="M124.7,22.4L124.7,22.4l0.3-1.9h-1.6l-3.4,16h1.7L124,26c0.5-2.5,2.1-4.2,4.7-4.2l0.4-1.8
					C127.1,20.1,125.9,20.7,124.7,22.4z"/>
			</g>
			<g>
				<path class="st0" d="M216.2,25.2c0.8-3.5-0.4-5.4-4.1-5.4c-3.6,0-5.9,1.5-6.5,4c-0.5,2.4,0.4,3.9,2,5.2l1.8,1.4
					c0.6,0.5,1.6,1,1.4,1.9c0,1-0.9,1.8-2,1.8c-0.9,0-2.1,0.1-1.1-2.9H204c-1.5,5,2.1,5.8,4.1,5.8c5.2,0,6.6-3,6.8-5.8
					c0.1-1.1-1.1-2.7-1.9-3.2l-2.6-2.1c-0.6-0.5-1.2-0.9-1-1.9c0.2-0.9,1-1.3,1.9-1.3c1.3,0,1.7,0.7,1.2,2.5H216.2z"/>
				<path class="st0" d="M199.9,19.7c-0.9,0-2.6,0.2-3.9,2.1H196l0.4-1.7h-3.8l-3.5,16.4h3.8l2.3-10.6c0.3-1.7,1.1-3.1,2.5-3
					c1.4,0.1,1.4,1.1,1,2.7l-2.3,10.9h3.8l2.7-12.6C203.6,21,202.1,19.7,199.9,19.7z"/>
				<path class="st0" d="M184.3,19.7c-5.7,0-6.5,3.6-7.7,9.2c-1.2,5.7-0.9,8.1,4.1,8.1c4.9,0.1,6.2-2.4,7.4-8.1
					C189.2,23.3,189.9,19.7,184.3,19.7z M184.9,25.7l-1.2,5.5c-0.4,2-0.8,2.9-2.5,2.9c-1.8,0-1.8-0.9-1.4-2.9l1.2-5.5
					c0.3-1.5,0.7-3.1,2.7-3.1C185.6,22.6,185.3,24.2,184.9,25.7z"/>
				<polygon class="st0" points="172.2,18.2 176,18.2 176.7,14.7 172.9,14.7 				"/>
				<polygon class="st0" points="168.3,36.5 172.1,36.5 175.5,20.1 171.8,20.1 				"/>
				<path class="st0" d="M167.1,20.1l1-4.5h-3.8l-1,4.5h-1.5l-0.6,2.8h1.5L160.4,34c-0.6,3.1,2.5,2.8,4.8,2.6l0.6-3
					c-0.5,0.1-1.5,0.1-1.5-0.6l2.2-10.2h1.6l0.6-2.8H167.1z"/>
				<path class="st0" d="M156.4,19.7c-1.6,0-2.7,0.6-3.7,2.2h-0.1l0.4-1.7h-3.8L144.5,42h3.6l1.5-7.2h0.1c0.6,1.7,1.5,2,3,2.1
					c3.2,0,4.4-2.8,5.1-5.5l1.3-5.9C159.9,21.1,158.8,19.8,156.4,19.7z M155.2,25.8l-1.2,5.5c-0.4,1.6-1.1,2.8-2.3,2.8
					c-1.2,0-1.6-1-1.2-2.9l1-4.9c0.2-1.3,0.8-3.6,2.5-3.6C156,22.6,155.5,24.2,155.2,25.8z"/>
				<path class="st0" d="M140.2,14.2c-6.5,0-7.8,4.1-9.2,9.7l-0.7,3.1c-1.2,5.8-1.7,10.1,5,10.1c6.7,0,8-4.2,9.3-10.1l0.7-3.1
					C146.3,18.3,146.7,14.2,140.2,14.2z M141.3,23.1l-1.2,5.6c-0.4,2.1-1.1,5.1-4,5.1c-2.8,0-2.3-2.9-1.9-4.7l1.3-6
					c0.4-1.7,0.9-5.5,4.1-5.5C142.5,17.5,141.6,21.4,141.3,23.1z"/>
			</g>
		</g>
	</g>
	<g>
		<path class="st1" d="M60.5,49.6c-4.6,3.1-10.5,2.6-16.2,0.6c-6.1-2.2-11.7-5.5-18.1-12.6c-3.5-3.9-6.1-9.2-6.9-13.9
			c-0.1-0.8-0.2-1.5-0.2-2.2c0-1.4,0.1-2.7,0.6-3.9c0.3-0.8,0.7-1.5,1.1-2.1c3.3-4.2,10.7-3.1,13.3-2.6c0.2,0,0.3,0,0.2-0.1
			c0,0-0.1-0.1-0.1-0.2c-0.6-0.8-3.9-2.9-8.5-3.1c-5.3-0.2-10.8,3.2-12.8,8.7c-0.6,1.6-0.8,3.3-0.7,5.1c0,0.4,0.1,0.7,0.1,1.1
			c1.1,9.7,9.1,19.5,20.3,25.4c5.6,3,11.6,4.4,17,4.1c4.7-0.2,8.7-1.8,11.4-4.7C61,49.3,60.8,49.4,60.5,49.6z"/>
		<path class="st1" d="M25.5,1.7c5.3,1.5,10,3.6,15,7.9c2.9,2.4,5.5,5.8,6.8,9c0.3,0.8,0.6,1.5,0.8,2.3c0.4,1.6,0.4,3.2,0,4.5
			c0,0,0,0,0,0.1c0,0.1,0,0.2-0.1,0.2c-1.7,4.8-8.6,3.5-11.4,3.3c-0.1,0-0.1,0-0.2,0c-0.1,0-0.1,0.1-0.1,0.2c0.2,0.9,3.8,4,8.6,3.9
			c3.3,0,5.8-2.1,6.8-5.2c0.5-1.8,0.6-3.9-0.1-6.2c-0.1-0.4-0.3-0.8-0.4-1.2c-0.1-0.2-0.2-0.5-0.3-0.7C48.2,14,42,7.9,34.2,4.2
			c-6.2-3-14.4-4.6-22.4-4C17-0.1,21.6,0.6,25.5,1.7z"/>
		<path class="st1" d="M55.5,23c0,0,0,0.1,0,0.1c0.6,2.5,0.7,4.8,0,6.9c-0.4,1.3-1.1,2.4-2.1,3.5c-3.2,3.4-11.4,4-18.9-1.1
			c-5.6-3.8-7.7-8.9-8.6-12.2c-0.3-0.9-0.4-1.7-0.6-2.3c-0.2-0.7-1.7-0.1-2.4,1.8c-0.3,1-0.5,2.2-0.2,3.8c0.1,0.5,0.2,1,0.4,1.5
			c2.3,7.3,12.5,16,21.8,17.1c6.4,0.7,11.1-2.1,12.7-7.1c0.3-1.1,0.5-2.3,0.6-3.6c0.1-2.4-0.5-5.2-1.7-8.1c-0.3-0.8-0.7-1.7-1.1-2.5
			c-0.9-1.7-1.9-3.4-3.1-5c0.3,0.5,0.6,1,0.9,1.5C54.3,19.3,55.1,21.3,55.5,23z"/>
		<path class="st1" d="M3.7,22c0-0.1,0.1-0.2,0.1-0.3c0,0,0,0,0,0c0,0,0,0,0,0c1.7-5.3,4.4-9.3,10.6-12.3C19.6,6.9,29,7,35.6,11
			c6.2,3.7,8.1,9.4,8.9,11.7c0.2,0.6,1,0.4,1.3-0.7c0.1-0.4,0.1-0.9,0.1-1.5c-0.1-0.6-0.2-1.3-0.6-2.1c-0.1-0.4-0.3-0.7-0.5-1.1
			c-2.6-4.9-11-11-19.1-12.4c-8.8-1.5-17.4,1.5-22,7.9c-1,1.4-1.8,3-2.4,4.7c-1,2.9-1.4,6.2-1.2,9.8c0,0.5,0.1,1,0.1,1.5
			c0.6,5.9,2.7,12.4,6.4,18.9C4.1,42,2.8,36.9,2.5,32.4c-0.1-1.8-0.1-3.4,0.1-5C2.8,25.4,3.1,23.6,3.7,22z"/>
	</g>
</g>
</svg>
